<svg data-v-0dd9719b="" version="1.0" xmlns="http://www.w3.org/2000/svg" xmlns:xlink="http://www.w3.org/1999/xlink" width="100%" height="100%" viewBox="0 0 340.000000 250.000000" preserveAspectRatio="xMidYMid meet" color-interpolation-filters="sRGB" style="margin: auto;"> <rect data-v-0dd9719b="" x="0" y="0" width="100%" height="100%" fill="#fcfcfc" fill-opacity="1" class="background"></rect> <!----> <g data-v-0dd9719b="" fill="#b722ff" class="icon-text-wrapper icon-svg-group iconsvg" transform="translate(63.89500427246094,93.08928489685059)"><g class="iconsvg-imagesvg" transform="translate(0,1.910715103149414)" mask="url(#7aa84a12-a93a-45dd-8313-8044f06af2e7)"><g><rect fill="#b722ff" fill-opacity="0" stroke-width="2" x="0" y="0" width="60" height="60" class="image-rect"></rect> <svg filter="url(#colors6263853117)" x="0" y="0" width="60" height="60" filtersec="colorsf9545400540" class="image-svg-svg primary" style="overflow: visible;"><svg xmlns="http://www.w3.org/2000/svg" viewBox="0.7999999999999998 0.7999999999999998 97.89999 97.9"><path d="M49.8 96.7l-47-46.9 47-47 46.9 46.9-46.9 47zm7.8-86.1L18.5 49.8l15.6 15.6-7.8 7.8m15.6 15.7L81 49.8 65.4 34.1l7.8-7.8m7.8 7.8L49.8 65.4 42 57.6 57.6 42l-7.8-7.8-31.3 31.2" fill="none" stroke="#333" stroke-width="4" stroke-miterlimit="10"></path></svg></svg> <defs><filter id="colors6263853117"><feColorMatrix type="matrix" values="0 0 0 0 0.71484375  0 0 0 0 0.1328125  0 0 0 0 0.99609375  0 0 0 1 0" class="icon-fecolormatrix"></feColorMatrix></filter> <filter id="colorsf9545400540"><feColorMatrix type="matrix" values="0 0 0 0 0.99609375  0 0 0 0 0.99609375  0 0 0 0 0.99609375  0 0 0 1 0" class="icon-fecolormatrix"></feColorMatrix></filter> <filter id="colorsb4253503172"><feColorMatrix type="matrix" values="0 0 0 0 0  0 0 0 0 0  0 0 0 0 0  0 0 0 1 0" class="icon-fecolormatrix"></feColorMatrix></filter></defs></g><rect v-gra="id" width="72" height="72" transform="translate(-6, -6)" style="pointer-events:none;" fill="url(#7FRL_SvTJrgD5__z93nhk)"></rect></g> <g transform="translate(67,0)"><g data-gra="path-name" fill-rule="" class="tp-name iconsvg-namesvg" transform="translate(0,0)" fill="url(#9d964cf4-378f-4e7e-9268-fd4635813a99)"><g transform="scale(1)"><g><path d="M37.05-1.63L37.05 0 23.01 0 23.01-1.63Q24.57-2.47 26.91-3.19L26.91-3.19 26.91-18.39Q26.91-23.46 25.48-26.36 24.05-29.25 20.28-29.25L20.28-29.25Q18.59-29.25 17.23-28.63 15.86-28.02 14.76-27.04 13.65-26.07 12.87-24.8 12.09-23.53 11.7-22.16L11.7-22.16 11.7-3.19Q12.74-2.93 13.68-2.6 14.63-2.27 15.54-1.63L15.54-1.63 15.54 0 1.56 0 1.56-1.63Q3.58-2.67 5.85-3.19L5.85-3.19 5.85-44.33 0.91-44.85 0.91-46.54Q2.79-47.32 5.3-47.91 7.8-48.49 10.08-48.88L10.08-48.88 11.7-48.88 11.7-25.94 11.77-25.94Q13.13-28.99 15.7-31.14 18.27-33.28 21.91-33.28L21.91-33.28Q24.51-33.28 26.55-32.66 28.6-32.05 29.96-30.48 31.33-28.93 32.05-26.29 32.76-23.66 32.76-19.63L32.76-19.63 32.76-3.19Q33.87-2.93 34.97-2.6 36.08-2.27 37.05-1.63L37.05-1.63ZM39.13-29.25L39.13-30.94Q41.6-32.5 44.33-33.15L44.33-33.15 44.33-38.68Q45.18-39.39 46.31-39.94 47.45-40.5 48.55-41.02L48.55-41.02 50.18-41.02 50.18-32.5 59.93-32.5 59.93-29.25 50.18-29.25 50.18-10.4Q50.18-6.5 51.41-4.88 52.65-3.25 55.12-3.25L55.12-3.25Q56.29-3.25 58.05-3.41 59.8-3.58 61.04-4.03L61.04-4.03 61.49-3.06Q60.97-2.47 60.03-1.82 59.09-1.17 57.88-0.58 56.68 0 55.25 0.39 53.82 0.78 52.33 0.78L52.33 0.78Q48.42 0.78 46.38-1.43 44.33-3.64 44.33-8.58L44.33-8.58 44.33-29.25 39.13-29.25ZM97.89-1.63L97.89 0 83.98 0 83.98-1.63Q84.63-2.02 85.57-2.44 86.52-2.86 87.81-3.19L87.81-3.19 87.81-18.2Q87.81-20.8 87.59-22.88 87.36-24.96 86.74-26.36 86.13-27.76 84.96-28.5 83.78-29.25 81.9-29.25L81.9-29.25Q80.47-29.25 79.27-28.67 78.06-28.08 77.12-27.11 76.18-26.13 75.5-24.89 74.81-23.66 74.43-22.3L74.43-22.3 74.43-3.19Q75.47-2.86 76.41-2.5 77.35-2.15 78.26-1.63L78.26-1.63 78.26 0 64.28 0 64.28-1.63Q65.2-2.08 66.3-2.47 67.41-2.86 68.58-3.19L68.58-3.19 68.58-28.73 64.28-29.25 64.28-30.94Q66.37-31.85 68.54-32.4 70.72-32.95 72.8-33.28L72.8-33.28 74.43-33.28 74.43-25.94 74.49-25.94Q75.53-28.99 78.03-31.14 80.53-33.28 84.24-33.28L84.24-33.28Q85.8-33.28 87.23-32.95 88.66-32.63 89.9-31.75 91.13-30.88 91.98-29.32 92.82-27.76 93.21-25.29L93.21-25.29Q94.38-28.86 96.98-31.07 99.58-33.28 103.48-33.28L103.48-33.28Q105.89-33.28 107.67-32.66 109.46-32.05 110.63-30.48 111.8-28.93 112.35-26.26 112.91-23.6 112.91-19.5L112.91-19.5 112.91-3.19Q115.12-2.79 117.2-1.63L117.2-1.63 117.2 0 103.22 0 103.22-1.63Q105.17-2.67 107.06-3.19L107.06-3.19 107.06-19.37Q107.06-21.71 106.83-23.53 106.6-25.35 105.95-26.62 105.3-27.89 104.13-28.57 102.96-29.25 101.01-29.25L101.01-29.25Q97.89-29.25 96.17-27.11 94.45-24.96 93.67-21.64L93.67-21.64 93.67-3.19Q95.94-2.54 97.89-1.63L97.89-1.63ZM145.28-5.46L146.12-4.55Q144.95-2.27 142.32-0.75 139.69 0.78 136.18 0.78L136.18 0.78Q132.34 0.78 129.51-0.42 126.69-1.63 124.8-3.87 122.92-6.11 121.97-9.26 121.03-12.42 121.03-16.25L121.03-16.25Q121.03-24.51 125.06-28.89 129.09-33.28 136.05-33.28L136.05-33.28Q139.23-33.28 141.73-32.73 144.24-32.18 145.99-31.27L145.99-31.27Q145.8-29.12 145.28-26.46 144.75-23.79 143.98-22.04L143.98-22.04 142.22-22.04 139.49-29.77Q139.04-30.1 138.45-30.26 137.87-30.42 136.5-30.42L136.5-30.42Q132.08-30.42 129.68-27.2 127.27-23.98 127.27-16.32L127.27-16.32Q127.27-13.85 127.95-11.51 128.64-9.17 130.03-7.31 131.43-5.46 133.54-4.36 135.66-3.25 138.45-3.25L138.45-3.25Q140.73-3.25 142.42-3.9 144.11-4.55 145.28-5.46L145.28-5.46Z" transform="translate(-0.9100000262260437, 48.880001068115234)"></path></g> <!----> <!----> <!----> <!----> <!----> <!----> <!----></g></g> <g data-gra="path-slogan" fill-rule="" class="tp-slogan iconsvg-slogansvg" fill="url(#6cd90573-b14f-461f-8266-86fef58ca30b)" transform="translate(0.6949996948242188,55.65999984741211)"><rect width="0"></rect> <rect x="146.8199920654297" width="0"></rect> <g transform="translate(0,0)"><g transform="scale(1)"><path d="M0.27-7.72L1.91 0L3.07 0L4.21-4.65C4.27-4.94 4.34-5.24 4.40-5.52C4.47-5.81 4.54-6.10 4.60-6.40L4.65-6.40C4.71-6.10 4.77-5.81 4.83-5.52C4.89-5.24 4.95-4.94 5.02-4.65L6.19 0L7.36 0L8.96-7.72L8.02-7.72L7.21-3.52C7.13-3.10 7.06-2.69 6.99-2.28C6.92-1.86 6.85-1.45 6.77-1.02L6.73-1.02C6.63-1.45 6.54-1.87 6.45-2.28C6.35-2.70 6.26-3.11 6.16-3.52L5.09-7.72L4.20-7.72L3.13-3.52C3.04-3.10 2.95-2.69 2.86-2.28C2.76-1.86 2.67-1.45 2.59-1.02L2.54-1.02C2.47-1.45 2.40-1.86 2.32-2.27C2.24-2.68 2.16-3.09 2.09-3.52L1.28-7.72ZM9.08-7.72L9.08 0L13.65 0L13.65-0.84L10.06-0.84L10.06-3.63L12.99-3.63L12.99-4.47L10.06-4.47L10.06-6.89L13.53-6.89L13.53-7.72ZM14.06-7.72L14.06 0L16.52 0C16.95 0 17.35-0.05 17.71-0.14C18.07-0.24 18.38-0.38 18.64-0.56C18.90-0.75 19.10-0.99 19.24-1.27C19.38-1.55 19.45-1.88 19.45-2.26C19.45-2.79 19.29-3.21 18.98-3.52C18.67-3.82 18.23-4.02 17.66-4.10L17.66-4.15C18.12-4.27 18.45-4.48 18.67-4.79C18.89-5.10 19.00-5.45 19.00-5.83C19.00-6.17 18.94-6.46 18.81-6.70C18.68-6.94 18.50-7.13 18.27-7.28C18.04-7.43 17.76-7.54 17.43-7.61C17.11-7.68 16.75-7.72 16.36-7.72ZM16.18-4.42L15.04-4.42L15.04-6.94L16.23-6.94C16.83-6.94 17.28-6.85 17.59-6.66C17.89-6.48 18.04-6.17 18.04-5.75C18.04-5.32 17.90-4.99 17.61-4.76C17.32-4.54 16.85-4.42 16.18-4.42ZM16.38-0.78L15.04-0.78L15.04-3.69L16.38-3.69C17.06-3.69 17.58-3.58 17.95-3.36C18.31-3.13 18.49-2.78 18.49-2.31C18.49-1.78 18.30-1.39 17.93-1.15C17.57-0.90 17.05-0.78 16.38-0.78ZM20.92-7.72L20.92 0L22.89 0C23.47 0 23.99-0.09 24.43-0.26C24.88-0.44 25.26-0.70 25.56-1.03C25.87-1.36 26.10-1.77 26.26-2.25C26.41-2.73 26.49-3.28 26.49-3.89C26.49-5.12 26.18-6.07 25.56-6.73C24.94-7.39 24.04-7.72 22.85-7.72ZM22.78-0.80L21.89-0.80L21.89-6.92L22.78-6.92C23.68-6.92 24.35-6.66 24.81-6.14C25.26-5.62 25.48-4.87 25.48-3.89C25.48-2.91 25.26-2.15 24.81-1.61C24.35-1.07 23.68-0.80 22.78-0.80ZM26.93-7.72L26.93 0L31.50 0L31.50-0.84L27.91-0.84L27.91-3.63L30.84-3.63L30.84-4.47L27.91-4.47L27.91-6.89L31.38-6.89L31.38-7.72ZM30.85-7.72L33.32 0L34.46 0L36.91-7.72L35.91-7.72L34.68-3.55C34.54-3.09 34.42-2.66 34.31-2.27C34.20-1.88 34.08-1.45 33.94-1.00L33.89-1.00C33.74-1.45 33.61-1.88 33.51-2.27C33.40-2.66 33.28-3.09 33.14-3.55L31.90-7.72ZM36.75-7.72L36.75 0L41.31 0L41.31-0.84L37.73-0.84L37.73-3.63L40.66-3.63L40.66-4.47L37.73-4.47L37.73-6.89L41.20-6.89L41.20-7.72ZM41.73-7.72L41.73 0L46.08 0L46.08-0.84L42.71-0.84L42.71-7.72ZM48.77 0.14C49.25 0.14 49.70 0.05 50.10-0.14C50.51-0.33 50.86-0.60 51.15-0.95C51.44-1.30 51.67-1.72 51.83-2.22C51.99-2.71 52.07-3.27 52.07-3.89C52.07-4.50 51.99-5.06 51.83-5.55C51.67-6.04 51.44-6.45 51.15-6.79C50.86-7.13 50.51-7.40 50.10-7.58C49.70-7.76 49.25-7.86 48.77-7.86C48.28-7.86 47.84-7.77 47.43-7.59C47.03-7.41 46.68-7.15 46.39-6.80C46.10-6.46 45.88-6.05 45.72-5.56C45.56-5.07 45.47-4.51 45.47-3.89C45.47-3.27 45.56-2.71 45.72-2.22C45.88-1.72 46.10-1.30 46.39-0.95C46.68-0.60 47.03-0.33 47.43-0.14C47.84 0.05 48.28 0.14 48.77 0.14ZM48.77-0.72C48.42-0.72 48.11-0.79 47.83-0.94C47.55-1.09 47.32-1.30 47.12-1.58C46.92-1.86 46.76-2.19 46.65-2.58C46.54-2.97 46.49-3.41 46.49-3.89C46.49-4.37 46.54-4.80 46.65-5.19C46.76-5.57 46.92-5.90 47.12-6.16C47.32-6.43 47.55-6.64 47.83-6.78C48.11-6.93 48.42-7.00 48.77-7.00C49.11-7.00 49.42-6.93 49.70-6.78C49.98-6.64 50.22-6.43 50.42-6.16C50.62-5.90 50.78-5.57 50.89-5.19C51.00-4.80 51.05-4.37 51.05-3.89C51.05-3.41 51.00-2.97 50.89-2.58C50.78-2.19 50.62-1.86 50.42-1.58C50.22-1.30 49.98-1.09 49.70-0.94C49.42-0.79 49.11-0.72 48.77-0.72ZM52.51-7.72L52.51 0L53.49 0L53.49-3.06L54.88-3.06C55.30-3.06 55.69-3.11 56.04-3.21C56.38-3.30 56.68-3.45 56.94-3.65C57.19-3.84 57.38-4.09 57.52-4.39C57.65-4.69 57.72-5.04 57.72-5.45C57.72-5.87 57.65-6.23 57.52-6.52C57.38-6.81 57.19-7.04 56.94-7.22C56.69-7.39 56.39-7.52 56.04-7.60C55.69-7.68 55.30-7.72 54.88-7.72ZM54.76-3.86L53.49-3.86L53.49-6.93L54.76-6.93C55.43-6.93 55.92-6.82 56.25-6.60C56.58-6.39 56.75-6.00 56.75-5.45C56.75-4.90 56.58-4.49 56.26-4.24C55.93-3.99 55.43-3.86 54.76-3.86ZM58.07-7.72L58.07 0L58.97 0L58.97-4.25C58.97-4.59 58.96-4.97 58.93-5.39C58.90-5.80 58.87-6.18 58.84-6.53L58.89-6.53L59.50-4.81L61.00-0.78L61.55-0.78L63.03-4.81L63.66-6.53L63.70-6.53C63.67-6.18 63.64-5.80 63.61-5.39C63.59-4.97 63.57-4.59 63.57-4.25L63.57 0L64.50 0L64.50-7.72L63.35-7.72L61.87-3.58L61.33-2.00L61.28-2.00L60.72-3.58L59.22-7.72ZM65.40-7.72L65.40 0L69.96 0L69.96-0.84L66.38-0.84L66.38-3.63L69.31-3.63L69.31-4.47L66.38-4.47L66.38-6.89L69.85-6.89L69.85-7.72ZM70.38-7.72L70.38 0L71.31 0L71.31-4.03C71.31-4.44 71.30-4.85 71.27-5.25C71.24-5.66 71.21-6.05 71.18-6.45L71.23-6.45L72.06-4.86L74.86 0L75.87 0L75.87-7.72L74.94-7.72L74.94-3.73C74.94-3.32 74.96-2.91 74.98-2.49C75.01-2.07 75.04-1.66 75.06-1.27L75.01-1.27L74.18-2.87L71.39-7.72ZM78.37-6.89L78.37 0L79.36 0L79.36-6.89L81.69-6.89L81.69-7.72L76.04-7.72L76.04-6.89ZM83.01-7.72L83.01 0L83.99 0L83.99-7.72ZM84.89-7.72L84.89 0L85.82 0L85.82-4.03C85.82-4.44 85.80-4.85 85.78-5.25C85.75-5.66 85.72-6.05 85.69-6.45L85.74-6.45L86.57-4.86L89.37 0L90.38 0L90.38-7.72L89.45-7.72L89.45-3.73C89.45-3.32 89.47-2.91 89.49-2.49C89.52-2.07 89.55-1.66 89.57-1.27L89.52-1.27L88.69-2.87L85.90-7.72ZM91.99-3.86C91.99-3.23 92.07-2.67 92.24-2.17C92.41-1.67 92.65-1.25 92.95-0.91C93.25-0.57 93.61-0.31 94.02-0.13C94.43 0.05 94.88 0.14 95.36 0.14C95.86 0.14 96.30 0.04 96.68-0.15C97.07-0.35 97.41-0.62 97.72-0.98L97.16-1.58C96.91-1.30 96.65-1.09 96.37-0.94C96.09-0.79 95.76-0.72 95.39-0.72C95.02-0.72 94.69-0.79 94.39-0.94C94.10-1.09 93.85-1.30 93.65-1.58C93.44-1.85 93.29-2.18 93.17-2.57C93.06-2.96 93.00-3.40 93.00-3.88C93.00-4.36 93.06-4.79 93.18-5.18C93.29-5.56 93.46-5.89 93.67-6.16C93.88-6.43 94.14-6.64 94.44-6.78C94.73-6.93 95.07-7.00 95.44-7.00C95.76-7.00 96.05-6.93 96.30-6.80C96.55-6.67 96.77-6.50 96.98-6.28L97.53-6.90C97.30-7.15 97.01-7.38 96.66-7.57C96.31-7.76 95.89-7.86 95.42-7.86C94.93-7.86 94.47-7.76 94.05-7.58C93.63-7.40 93.27-7.13 92.97-6.79C92.66-6.44 92.42-6.02 92.25-5.53C92.08-5.03 91.99-4.48 91.99-3.86ZM98.76-2.33L99.60-2.33C99.57-2.60 99.59-2.85 99.66-3.08C99.73-3.30 99.83-3.51 99.96-3.70C100.09-3.90 100.23-4.09 100.39-4.28C100.54-4.46 100.68-4.65 100.82-4.83C100.96-5.02 101.07-5.22 101.17-5.43C101.26-5.65 101.31-5.88 101.31-6.14C101.31-6.73 101.13-7.19 100.76-7.52C100.40-7.85 99.91-8.02 99.30-8.02C98.87-8.02 98.50-7.93 98.18-7.75C97.86-7.56 97.57-7.33 97.32-7.05L97.87-6.54C98.05-6.75 98.26-6.92 98.49-7.04C98.72-7.16 98.97-7.22 99.23-7.22C99.60-7.22 99.89-7.11 100.08-6.89C100.27-6.66 100.37-6.39 100.37-6.08C100.37-5.87 100.32-5.67 100.23-5.49C100.14-5.31 100.03-5.13 99.90-4.96C99.76-4.78 99.62-4.60 99.47-4.42C99.32-4.24 99.18-4.05 99.06-3.84C98.94-3.63 98.85-3.40 98.79-3.16C98.72-2.91 98.71-2.63 98.76-2.33ZM98.51-0.59C98.51-0.38 98.58-0.20 98.71-0.06C98.84 0.07 99.01 0.14 99.20 0.14C99.40 0.14 99.57 0.07 99.70-0.06C99.84-0.20 99.91-0.38 99.91-0.59C99.91-0.82 99.84-1.00 99.70-1.13C99.57-1.27 99.40-1.34 99.20-1.34C99.01-1.34 98.84-1.27 98.71-1.13C98.58-1.00 98.51-0.82 98.51-0.59ZM102.08-7.72L103.72 0L104.88 0L106.02-4.65C106.09-4.94 106.15-5.24 106.22-5.52C106.28-5.81 106.35-6.10 106.41-6.40L106.46-6.40C106.52-6.10 106.58-5.81 106.64-5.52C106.70-5.24 106.76-4.94 106.83-4.65L108.00 0L109.17 0L110.77-7.72L109.83-7.72L109.02-3.52C108.94-3.10 108.87-2.69 108.80-2.28C108.73-1.86 108.66-1.45 108.59-1.02L108.54-1.02C108.45-1.45 108.35-1.87 108.26-2.28C108.16-2.70 108.07-3.11 107.97-3.52L106.90-7.72L106.01-7.72L104.94-3.52C104.85-3.10 104.76-2.69 104.67-2.28C104.58-1.86 104.49-1.45 104.40-1.02L104.35-1.02C104.28-1.45 104.21-1.86 104.13-2.27C104.05-2.68 103.98-3.09 103.91-3.52L103.09-7.72ZM110.90-7.72L110.90 0L111.87 0L111.87-3.63L115.46-3.63L115.46 0L116.45 0L116.45-7.72L115.46-7.72L115.46-4.48L111.87-4.48L111.87-7.72ZM118.59-2.99L118.59 0L119.58 0L119.58-2.99L121.90-7.72L120.87-7.72L119.89-5.54C119.77-5.26 119.64-4.98 119.51-4.70C119.38-4.43 119.24-4.15 119.11-3.86L119.06-3.86C118.93-4.15 118.80-4.43 118.69-4.70C118.57-4.98 118.45-5.26 118.32-5.54L117.32-7.72L116.28-7.72ZM122.88-7.72L122.88 0L123.81 0L123.81-4.03C123.81-4.44 123.80-4.85 123.77-5.25C123.74-5.66 123.71-6.05 123.68-6.45L123.73-6.45L124.56-4.86L127.36 0L128.38 0L128.38-7.72L127.45-7.72L127.45-3.73C127.45-3.32 127.46-2.91 127.49-2.49C127.51-2.07 127.54-1.66 127.56-1.27L127.52-1.27L126.68-2.87L123.89-7.72ZM132.12 0.14C132.61 0.14 133.05 0.05 133.45-0.14C133.86-0.33 134.21-0.60 134.50-0.95C134.80-1.30 135.02-1.72 135.18-2.22C135.34-2.71 135.43-3.27 135.43-3.89C135.43-4.50 135.34-5.06 135.18-5.55C135.02-6.04 134.80-6.45 134.50-6.79C134.21-7.13 133.86-7.40 133.45-7.58C133.05-7.76 132.61-7.86 132.12-7.86C131.63-7.86 131.19-7.77 130.79-7.59C130.38-7.41 130.03-7.15 129.74-6.80C129.45-6.46 129.23-6.05 129.07-5.56C128.91-5.07 128.83-4.51 128.83-3.89C128.83-3.27 128.91-2.71 129.07-2.22C129.23-1.72 129.45-1.30 129.74-0.95C130.03-0.60 130.38-0.33 130.79-0.14C131.19 0.05 131.63 0.14 132.12 0.14ZM132.12-0.72C131.78-0.72 131.46-0.79 131.18-0.94C130.91-1.09 130.67-1.30 130.47-1.58C130.27-1.86 130.11-2.19 130.00-2.58C129.89-2.97 129.84-3.41 129.84-3.89C129.84-4.37 129.89-4.80 130.00-5.19C130.11-5.57 130.27-5.90 130.47-6.16C130.67-6.43 130.91-6.64 131.18-6.78C131.46-6.93 131.78-7.00 132.12-7.00C132.47-7.00 132.78-6.93 133.06-6.78C133.33-6.64 133.57-6.43 133.77-6.16C133.97-5.90 134.13-5.57 134.24-5.19C134.35-4.80 134.40-4.37 134.40-3.89C134.40-3.41 134.35-2.97 134.24-2.58C134.13-2.19 133.97-1.86 133.77-1.58C133.57-1.30 133.33-1.09 133.06-0.94C132.78-0.79 132.47-0.72 132.12-0.72ZM137.23-6.89L137.23 0L138.22 0L138.22-6.89L140.55-6.89L140.55-7.72L134.90-7.72L134.90-6.89ZM141.54-2.33L142.39-2.33C142.35-2.60 142.37-2.85 142.44-3.08C142.51-3.30 142.61-3.51 142.74-3.70C142.87-3.90 143.01-4.09 143.17-4.28C143.32-4.46 143.47-4.65 143.60-4.83C143.74-5.02 143.86-5.22 143.95-5.43C144.04-5.65 144.09-5.88 144.09-6.14C144.09-6.73 143.91-7.19 143.54-7.52C143.18-7.85 142.69-8.02 142.08-8.02C141.66-8.02 141.28-7.93 140.96-7.75C140.64-7.56 140.35-7.33 140.10-7.05L140.66-6.54C140.84-6.75 141.04-6.92 141.27-7.04C141.50-7.16 141.75-7.22 142.01-7.22C142.39-7.22 142.67-7.11 142.86-6.89C143.05-6.66 143.15-6.39 143.15-6.08C143.15-5.87 143.10-5.67 143.01-5.49C142.92-5.31 142.81-5.13 142.68-4.96C142.55-4.78 142.40-4.60 142.25-4.42C142.10-4.24 141.96-4.05 141.84-3.84C141.73-3.63 141.63-3.40 141.57-3.16C141.50-2.91 141.49-2.63 141.54-2.33ZM141.29-0.59C141.29-0.38 141.36-0.20 141.49-0.06C141.62 0.07 141.79 0.14 141.99 0.14C142.18 0.14 142.35 0.07 142.48-0.06C142.62-0.20 142.69-0.38 142.69-0.59C142.69-0.82 142.62-1.00 142.48-1.13C142.35-1.27 142.18-1.34 141.99-1.34C141.79-1.34 141.62-1.27 141.49-1.13C141.36-1.00 141.29-0.82 141.29-0.59Z" transform="translate(-0.27051751176163097, 8.021432305279665)"></path></g></g></g></g></g><defs v-gra="od"><linearGradient x1="0" y1="1" x2="0" y2="0" id="6cd90573-b14f-461f-8266-86fef58ca30b"><stop offset="0%" stop-color="#b722ff"></stop><stop offset="100%" stop-color="#22d4fe"></stop></linearGradient><filter id="42443b3f1de60f6b6fd3b6a9844b4764" filterUnits="objectBoundingBox"><feColorMatrix type="matrix" values="0 0 0 0 0.99609375  0 0 0 0 0.99609375  0 0 0 0 0.99609375  0 0 0 1 0"></feColorMatrix></filter><linearGradient x1="0" y1="1" x2="0" y2="0" id="9d964cf4-378f-4e7e-9268-fd4635813a99"><stop offset="0%" stop-color="#b722ff"></stop><stop offset="100%" stop-color="#22d4fe"></stop></linearGradient><filter id="42443b3f1de60f6b6fd3b6a9844b4764" filterUnits="objectBoundingBox"><feColorMatrix type="matrix" values="0 0 0 0 0.99609375  0 0 0 0 0.99609375  0 0 0 0 0.99609375  0 0 0 1 0"></feColorMatrix></filter></defs><defs v-gra="id"><filter id="100572a9-fa4b-4890-8dda-910526c0542f" filterUnits="userSpaceOnUse"><feColorMatrix type="matrix" values="0 0 0 0 0.99609375  0 0 0 0 0.99609375  0 0 0 0 0.99609375  0 0 0 1 0"></feColorMatrix></filter><linearGradient x1="0" y1="1" x2="0" y2="0" id="7FRL_SvTJrgD5__z93nhk"><stop offset="0%" stop-color="#b722ff"></stop><stop offset="100%" stop-color="#22d4fe"></stop></linearGradient><filter id="42443b3f1de60f6b6fd3b6a9844b4764" filterUnits="objectBoundingBox"><feColorMatrix type="matrix" values="0 0 0 0 0.99609375  0 0 0 0 0.99609375  0 0 0 0 0.99609375  0 0 0 1 0"></feColorMatrix></filter></defs><mask v-gra="im" id="7aa84a12-a93a-45dd-8313-8044f06af2e7"><g class="iconsvg-imagesvg" filter="url(#100572a9-fa4b-4890-8dda-910526c0542f)"><g><rect fill="#b722ff" fill-opacity="0" stroke-width="2" x="0" y="0" width="60" height="60" class="image-rect"></rect> <svg x="0" y="0" width="60" height="60" filtersec="colorsf9545400540" class="image-svg-svg primary" style="overflow: visible;"><svg xmlns="http://www.w3.org/2000/svg" viewBox="0.7999999999999998 0.7999999999999998 97.89999 97.9"><path d="M49.8 96.7l-47-46.9 47-47 46.9 46.9-46.9 47zm7.8-86.1L18.5 49.8l15.6 15.6-7.8 7.8m15.6 15.7L81 49.8 65.4 34.1l7.8-7.8m7.8 7.8L49.8 65.4 42 57.6 57.6 42l-7.8-7.8-31.3 31.2" fill="none" stroke="#333" stroke-width="4" stroke-miterlimit="10"></path></svg></svg> <defs><filter id="colors6263853117"><feColorMatrix type="matrix" values="0 0 0 0 0.71484375  0 0 0 0 0.1328125  0 0 0 0 0.99609375  0 0 0 1 0" class="icon-fecolormatrix"></feColorMatrix></filter> <filter id="colorsf9545400540"><feColorMatrix type="matrix" values="0 0 0 0 0.99609375  0 0 0 0 0.99609375  0 0 0 0 0.99609375  0 0 0 1 0" class="icon-fecolormatrix"></feColorMatrix></filter> <filter id="colorsb4253503172"><feColorMatrix type="matrix" values="0 0 0 0 0  0 0 0 0 0  0 0 0 0 0  0 0 0 1 0" class="icon-fecolormatrix"></feColorMatrix></filter></defs></g></g></mask></svg>
