<svg xmlns="http://www.w3.org/2000/svg" width="231" height="71" viewBox="0 0 231 71" fill="none"><script xmlns=""/>
<path d="M84.6875 56V12.163H93.2425V29.8925C93.7342 29.1845 94.3537 28.4863 95.101 27.798C95.8483 27.09 96.7825 26.5 97.9035 26.028C99.0245 25.556 100.391 25.32 102.004 25.32C103.951 25.32 105.721 25.7035 107.314 26.4705C108.927 27.2178 110.215 28.3093 111.179 29.745C112.162 31.1807 112.654 32.931 112.654 34.996V56H104.01V36.2645C104.01 34.8878 103.509 33.8357 102.506 33.108C101.522 32.3607 100.323 31.987 98.9065 31.987C97.9822 31.987 97.0873 32.1542 96.222 32.4885C95.3567 32.8228 94.6487 33.3342 94.098 34.0225C93.567 34.6912 93.3015 35.527 93.3015 36.53V56H84.6875ZM132.903 56.3245C130.209 56.3245 128.124 55.9803 126.649 55.292C125.194 54.6037 124.181 53.64 123.611 52.401C123.06 51.162 122.785 49.7263 122.785 48.094V31.4855H117.829V25.497H123.05L125.233 16.293H131.369V25.4675H138.154V31.4855H131.369L131.428 47.74C131.428 48.4873 131.517 49.0478 131.694 49.4215C131.891 49.7755 132.186 50.0115 132.579 50.1295C132.992 50.2278 133.513 50.277 134.142 50.277H138.243V55.587C137.83 55.764 137.21 55.9312 136.384 56.0885C135.558 56.2458 134.398 56.3245 132.903 56.3245ZM145.471 56V25.497H153.908V29.804C154.833 28.4667 156.072 27.3162 157.625 26.3525C159.199 25.3888 161.175 24.907 163.555 24.907C164.597 24.907 165.659 25.0938 166.741 25.4675C167.822 25.8412 168.835 26.3918 169.779 27.1195C170.743 27.8275 171.52 28.7223 172.11 29.804C173.093 28.4077 174.381 27.2473 175.974 26.323C177.587 25.379 179.377 24.907 181.343 24.907C182.484 24.907 183.634 25.0938 184.795 25.4675C185.975 25.8412 187.056 26.4508 188.04 27.2965C189.023 28.1422 189.81 29.273 190.4 30.689C191.009 32.0853 191.314 33.816 191.314 35.881V56H182.7V36.943C182.7 35.7237 182.454 34.7502 181.963 34.0225C181.491 33.2752 180.881 32.7442 180.134 32.4295C179.406 32.0952 178.629 31.928 177.803 31.928C177.036 31.928 176.259 32.0853 175.473 32.4C174.686 32.695 174.017 33.1768 173.467 33.8455C172.916 34.5142 172.641 35.3893 172.641 36.471V56H164.056V36.176C164.056 35.2517 163.81 34.4748 163.319 33.8455C162.827 33.2162 162.208 32.7442 161.46 32.4295C160.733 32.0952 159.985 31.928 159.218 31.928C158.432 31.928 157.645 32.0952 156.858 32.4295C156.072 32.7442 155.413 33.2457 154.882 33.934C154.351 34.6027 154.085 35.4483 154.085 36.471V56H145.471ZM212.761 56.59C209.929 56.59 207.402 55.9607 205.18 54.702C202.957 53.4433 201.207 51.6438 199.929 49.3035C198.67 46.9435 198.041 44.1312 198.041 40.8665C198.041 37.7198 198.65 34.9468 199.87 32.5475C201.089 30.1482 202.8 28.2798 205.003 26.9425C207.225 25.5855 209.811 24.907 212.761 24.907C215.318 24.907 217.521 25.4282 219.369 26.4705C221.238 27.5128 222.703 28.919 223.765 30.689C224.846 32.459 225.466 34.4355 225.623 36.6185H218.455C218.317 35.8122 218.032 35.0157 217.599 34.229C217.167 33.4227 216.557 32.7638 215.77 32.2525C214.984 31.7215 214 31.456 212.82 31.456C210.814 31.456 209.182 32.2328 207.923 33.7865C206.684 35.3205 206.065 37.6608 206.065 40.8075C206.065 43.7772 206.674 46.1372 207.894 47.8875C209.113 49.6182 210.814 50.4835 212.997 50.4835C214.158 50.4835 215.121 50.1983 215.888 49.628C216.675 49.0577 217.285 48.3792 217.717 47.5925C218.15 46.7862 218.425 46.0388 218.543 45.3505H225.535C225.397 47.4548 224.787 49.3625 223.706 51.0735C222.624 52.7648 221.149 54.112 219.281 55.115C217.432 56.0983 215.259 56.59 212.761 56.59Z" fill="url(#paint0_linear_2002_47)"/>
<g clip-path="url(#clip0_2002_47)">
<g clip-path="url(#clip1_2002_47)">
<path d="M40.839 10.1266L15.8549 35.5324L25.823 45.6428L20.839 50.6981M30.807 60.8733L55.7911 35.5324L45.823 25.3571L50.807 20.3019M55.7911 25.3571L35.8549 45.6428L30.8709 40.5876L40.839 30.4772L35.8549 25.4219L15.8549 45.6428M35.8549 65.9286L5.823 35.5324L35.8549 5.07141L65.823 35.4676L35.8549 65.9286Z" stroke="url(#paint1_linear_2002_47)" stroke-width="4" stroke-miterlimit="10"/>
</g>
</g>
<defs>
<linearGradient id="paint0_linear_2002_47" x1="156" y1="16.5" x2="155.726" y2="55.9981" gradientUnits="userSpaceOnUse">
<stop stop-color="#22D4FE" stop-opacity="0.77"/>
<stop offset="0.855" stop-color="#A13CFF" stop-opacity="0.96665"/>
<stop offset="1" stop-color="#B722FF"/>
</linearGradient>
<linearGradient id="paint1_linear_2002_47" x1="35.823" y1="5.07141" x2="35.823" y2="65.9286" gradientUnits="userSpaceOnUse">
<stop stop-color="#22D4FE"/>
<stop offset="1" stop-color="#B722FF"/>
</linearGradient>
<clipPath id="clip0_2002_47">
<rect width="71" height="71" fill="white"/>
</clipPath>
<clipPath id="clip1_2002_47">
<rect width="72" height="71" fill="white" transform="translate(-1)"/>
</clipPath>
</defs>
<script xmlns=""/></svg>
